# xmcd
# 
# Track frame offsets:
#     150
#     19390
#     40442
#     64376
#     91821
#     130604
#     159401
#     176281
#     204125
#     220192
#     244778
#     286951
# 
# Disc length: 4245
# 
# Revision: 2
# Processed by: cddbd v1.5.2PL0 Copyright (c) Steve Scherf et al.
# Submitted via: fre:ac v1.0.27
# 
DISCID=a110930c
DTITLE=Vince Mendoza and the Metropole Orchestra - El Viento - The Garcia Lorca Project
DYEAR=2009
DGENRE=Jazz
TTITLE0=La Cancion del Mariquita
TTITLE1=Historietas del Viento I: El Viento
TTITLE2=Historietas del Viento II: Viento Estancado
TTITLE3=Historietas del Viento III: La Brisa
TTITLE4=La Tarara
TTITLE5=De Los Cuatros Muleros
TTITLE6=Sevillanas del Siglo XVIII
TTITLE7=La Nana del Caballo Grande
TTITLE8=Los Peregrinitos
TTITLE9=Angeles Negros
TTITLE10=Los Mozos de Monleon
TTITLE11=La Leyenda del Tiempo
EXTD=YEAR: 2009
EXTT0=
EXTT1=
EXTT2=
EXTT3=
EXTT4=
EXTT5=
EXTT6=
EXTT7=
EXTT8=
EXTT9=
EXTT10=
EXTT11=
PLAYORDER=
